<svg id="vector" xmlns="http://www.w3.org/2000/svg" width="24" height="24" viewBox="0 0 24 24"><defs><clipPath id="clip_path_0"><path d="M2,4.118h20v15.765h-20z"/></clipPath></defs><g id="g_0"><path fill="#0064A7" d="M13.716,19.882C18.046,19.903 22,16.369 22,12.068C22,7.366 18.048,4.118 13.716,4.118H9.988C5.607,4.118 2,7.366 2,12.068C2,16.369 5.607,19.903 9.99,19.882H13.718H13.716Z" clip-path="url(#clip_path_0)"/><path fill="#ffffff" d="M11.652,16.255V7.716C13.377,8.375 14.601,10.037 14.604,11.985C14.601,13.934 13.376,15.595 11.652,16.255ZM5.412,11.986C5.415,10.038 6.638,8.378 8.362,7.718V16.255C6.638,15.595 5.415,13.936 5.412,11.986ZM10.008,4.77C6.004,4.77 2.758,8.001 2.757,11.986C2.757,15.972 6.002,19.2 10.008,19.201C14.013,19.201 17.259,15.972 17.26,11.986C17.26,8.001 14.013,4.771 10.008,4.77Z"/></g></svg>