<svg id="vector" xmlns="http://www.w3.org/2000/svg" width="24" height="24" viewBox="0 0 24 24"><path fill="#000000" d="M17.407,4.343C16.696,3.625 15.859,3.043 14.937,2.629C13.95,2.187 12.877,1.973 11.797,2.003C10.717,2.032 9.657,2.303 8.696,2.797C7.667,3.33 6.758,4.068 6.025,4.966C4.458,6.85 3.595,9.348 3.595,12.005C3.595,14.968 4.687,17.759 6.592,19.664C7.304,20.381 8.142,20.961 9.064,21.372C9.988,21.786 10.989,22 12.001,22C13.014,22 14.015,21.786 14.939,21.372C15.86,20.959 16.697,20.379 17.407,19.661C19.313,17.756 20.405,14.965 20.405,12.002C20.405,9.04 19.313,6.248 17.407,4.343Z" id="path_0"/><path fill="#ffffff" d="M12.009,21.825C12.994,21.823 13.968,21.615 14.867,21.213C15.77,20.809 16.59,20.24 17.285,19.535C19.154,17.663 20.23,14.917 20.23,12.005C20.23,9.093 19.154,6.34 17.284,4.468C16.588,3.766 15.769,3.2 14.867,2.797C13.905,2.365 12.858,2.155 11.804,2.182C10.75,2.21 9.715,2.474 8.777,2.955C7.769,3.477 6.879,4.199 6.16,5.078C4.62,6.924 3.771,9.388 3.771,12.005C3.771,14.92 4.846,17.667 6.718,19.538C7.413,20.241 8.233,20.809 9.136,21.213C10.04,21.617 11.019,21.826 12.009,21.825Z" id="path_1"/><path fill="#000000" d="M17.104,4.648C16.431,3.966 15.637,3.415 14.762,3.022C13.834,2.606 12.824,2.405 11.807,2.432C10.79,2.46 9.792,2.716 8.888,3.181C7.91,3.685 7.045,4.383 6.348,5.234C4.852,7.047 4.025,9.449 4.025,12.005C4.025,14.85 5.071,17.53 6.897,19.356C7.57,20.038 8.364,20.589 9.239,20.982C10.108,21.37 11.049,21.571 12,21.571C12.952,21.571 13.893,21.37 14.762,20.982C15.637,20.59 16.431,20.038 17.104,19.356C18.93,17.53 19.976,14.85 19.976,12.005C19.976,9.16 18.93,6.472 17.104,4.648Z" id="path_2"/><path fill="#ffffff" d="M14.994,8.151C14.108,8.151 11.949,8.811 11.857,8.838C11.847,8.842 11.838,8.847 11.83,8.852C11.735,8.413 11.586,7.986 11.387,7.582C11.819,7.4 13.998,6.528 15.724,6.641C16.585,7.384 16.772,8.297 16.772,8.449C16.775,8.481 16.775,8.514 16.772,8.546C16.455,8.354 15.835,8.151 14.994,8.151Z" id="path_3"/><path fill="#ffffff" d="M8.429,6.387C8.62,6.071 8.853,5.784 9.123,5.532C10.034,4.669 11.227,4.088 12.679,3.786C12.686,3.784 12.693,3.784 12.7,3.785C12.707,3.786 12.713,3.789 12.719,3.793C12.724,3.797 12.729,3.803 12.732,3.809C12.735,3.815 12.737,3.822 12.736,3.829L12.694,4.94C12.49,4.94 12.292,4.94 12.097,4.958C12.255,4.915 12.387,4.82 12.543,4.783C12.226,4.84 11.913,4.913 11.604,5.002C11.4,5.026 11.203,5.058 11.011,5.097C11.444,4.882 11.896,4.704 12.36,4.567C11.724,4.708 11.107,4.926 10.523,5.215C10.312,5.274 10.105,5.346 9.903,5.431C10.577,4.946 11.329,4.578 12.125,4.342C11.084,4.637 10.003,5.136 9.267,5.752C9.83,5.17 10.507,4.71 11.255,4.402C10.167,4.826 9.197,5.507 8.429,6.387Z" id="path_4"/><path fill="#ffffff" d="M9.294,5.956C9.292,5.939 9.294,5.922 9.299,5.907C9.304,5.891 9.313,5.876 9.324,5.864C9.358,5.847 9.397,5.843 9.434,5.853C9.808,6.034 10.155,6.266 10.466,6.542C11.39,7.42 11.674,8.866 11.677,8.882C11.871,9.542 11.927,9.925 11.849,10.054C11.82,10.101 11.768,10.112 11.679,10.128C11.479,10.173 11.282,10.231 11.09,10.303C10.977,10.341 10.863,10.381 10.744,10.417C10.528,10.486 10.477,10.387 10.426,10.217C10.42,10.196 10.413,10.174 10.404,10.154C9.558,8.098 9.294,6.289 9.294,5.956Z" id="path_5"/><path fill="#ffffff" d="M16.678,8.726L16.664,8.739C16.616,8.763 16.564,8.776 16.511,8.779C16.458,8.781 16.404,8.773 16.354,8.753C16.367,8.699 16.385,8.646 16.409,8.595C16.503,8.632 16.593,8.678 16.678,8.733V8.726Z" id="path_6"/><path fill="#ffffff" d="M11.568,6.073C11.339,6.145 11.117,6.242 10.908,6.36C10.908,6.36 11.225,6.29 11.584,6.184C12.007,6.055 12.437,5.949 12.872,5.866C12.433,5.907 11.998,5.975 11.568,6.069V6.073Z" id="path_7"/><path fill="#ffffff" d="M11.708,6.23C11.478,6.303 11.257,6.4 11.047,6.519C11.047,6.519 11.365,6.449 11.722,6.341C12.146,6.213 12.575,6.107 13.01,6.023C12.572,6.065 12.137,6.133 11.708,6.227V6.23Z" id="path_8"/><path fill="#ffffff" d="M11.783,6.406C11.553,6.478 11.331,6.575 11.122,6.695C11.122,6.695 11.44,6.625 11.797,6.517C12.22,6.389 12.65,6.283 13.084,6.199C12.647,6.24 12.212,6.308 11.783,6.402V6.406Z" id="path_9"/><path fill="#ffffff" d="M11.886,6.583C11.656,6.656 11.434,6.752 11.225,6.871C11.225,6.871 11.543,6.801 11.901,6.694C12.324,6.566 12.753,6.46 13.187,6.377C12.75,6.418 12.315,6.486 11.886,6.58V6.583Z" id="path_10"/><path fill="#ffffff" d="M12.106,6.701C11.877,6.774 11.655,6.87 11.446,6.989C11.446,6.989 11.763,6.919 12.122,6.811C12.546,6.691 12.976,6.593 13.41,6.519C13.145,6.555 12.467,6.593 12.106,6.701Z" id="path_11"/><path fill="#ffffff" d="M12.26,6.888C12.054,6.955 11.856,7.043 11.668,7.15C11.668,7.15 11.949,7.087 12.274,6.991C12.654,6.883 13.039,6.796 13.429,6.729C13.192,6.764 12.584,6.791 12.26,6.888Z" id="path_12"/><path fill="#ffffff" d="M11.301,5.961C11.123,6.014 10.95,6.084 10.787,6.172C10.787,6.172 11.031,6.122 11.312,6.042C11.593,5.963 12.106,5.807 12.312,5.78C11.972,5.822 11.635,5.883 11.301,5.961Z" id="path_13"/><path fill="#ffffff" d="M11.124,5.826C10.977,5.869 10.835,5.927 10.7,5.998C10.7,5.998 10.901,5.957 11.133,5.893C11.365,5.83 11.794,5.699 11.96,5.679C11.679,5.712 11.399,5.761 11.124,5.826Z" id="path_14"/><path fill="#ffffff" d="M11.039,5.696C10.941,5.73 10.846,5.774 10.757,5.829C10.757,5.829 10.89,5.797 11.046,5.747C11.201,5.696 11.484,5.597 11.595,5.588C11.408,5.615 11.222,5.654 11.039,5.704V5.696Z" id="path_15"/><path fill="#ffffff" d="M12.408,7.025C12.202,7.092 12.003,7.18 11.815,7.287L11.996,7.242C12.346,7.117 12.79,6.969 13.297,6.841C12.997,6.886 12.7,6.947 12.408,7.025Z" id="path_16"/><path fill="#000000" d="M15.304,13.351C15.357,13.358 15.412,13.354 15.464,13.339C15.516,13.323 15.564,13.297 15.605,13.262C15.729,13.145 15.605,13.174 15.553,13.196C15.458,13.227 15.372,13.281 15.304,13.355V13.351Z" id="path_17"/><path fill="#000000" d="M15.215,13.204C15.215,13.204 15.442,13.218 15.421,13.092C15.421,13.05 15.29,13.137 15.215,13.204Z" id="path_18"/><path fill="#000000" d="M15.026,13.13C15.026,13.13 15.185,13.13 15.232,13.042C15.318,12.868 15.062,13.086 15.026,13.13Z" id="path_19"/><path fill="#000000" d="M14.899,13.042C14.899,13.042 15.083,13.02 15.058,12.939C15.032,12.858 14.918,13.006 14.899,13.042Z" id="path_20"/><path fill="#000000" d="M16.02,12.916C16.024,12.978 16.017,13.041 15.999,13.1C15.999,13.1 16.123,13.064 16.02,12.916Z" id="path_21"/><path fill="#000000" d="M15.921,13.086C15.921,13.086 16.002,12.991 15.95,12.917C15.898,12.842 15.921,13.086 15.921,13.086Z" id="path_22"/><path fill="#000000" d="M15.848,13.056C15.831,13.019 15.821,12.979 15.818,12.938C15.818,12.887 15.744,12.983 15.848,13.056Z" id="path_23"/><path fill="#000000" d="M13.054,13.21C13.098,13.172 13.148,13.142 13.202,13.123C13.253,13.115 13.18,13.21 13.054,13.21Z" id="path_24"/><path fill="#000000" d="M12.759,13.126C12.802,13.088 12.852,13.058 12.906,13.039C12.957,13.031 12.884,13.126 12.759,13.126Z" id="path_25"/><path fill="#000000" d="M13.083,13.507C13.126,13.47 13.176,13.44 13.23,13.42C13.281,13.42 13.208,13.507 13.083,13.507Z" id="path_26"/><path fill="#000000" d="M13.348,13.545C13.391,13.507 13.441,13.477 13.495,13.456C13.546,13.456 13.473,13.545 13.348,13.545Z" id="path_27"/><path fill="#000000" d="M13.621,13.623C13.651,13.603 13.681,13.581 13.708,13.557C13.738,13.528 13.738,13.668 13.621,13.623Z" id="path_28"/><path fill="#000000" d="M13.305,13.314C13.336,13.294 13.365,13.273 13.392,13.248C13.422,13.218 13.422,13.358 13.305,13.314Z" id="path_29"/><path fill="#000000" d="M12.922,12.762C12.954,12.743 12.983,12.72 13.01,12.695C13.04,12.667 13.04,12.806 12.922,12.762Z" id="path_30"/><path fill="#000000" d="M12.914,12.497C12.945,12.478 12.975,12.456 13.003,12.432C13.031,12.402 13.031,12.542 12.914,12.497Z" id="path_31"/><path fill="#000000" d="M14.694,13.947C14.725,13.927 14.754,13.905 14.781,13.88C14.811,13.85 14.811,13.99 14.694,13.947Z" id="path_32"/><path fill="#000000" d="M14.943,14.048C14.975,14.028 15.005,14.006 15.032,13.981C15.061,13.953 15.061,14.093 14.943,14.048Z" id="path_33"/><path fill="#000000" d="M13.238,12.594L13.208,12.63L13.289,12.637L13.297,12.594H13.238Z" id="path_34"/><path fill="#000000" d="M13.356,13.004L13.327,13.04L13.408,13.048L13.416,13.004H13.356Z" id="path_35"/><path fill="#000000" d="M14.443,13.57L14.415,13.607L14.495,13.615L14.502,13.57H14.443Z" id="path_36"/><path fill="#000000" d="M14.275,13.74L14.245,13.777L14.326,13.783L14.333,13.74H14.275Z" id="path_37"/><path fill="#ffffff" d="M8.553,15.852C8.856,16.156 9.404,16.156 9.637,16.154H9.71C9.71,16.14 9.71,16.125 9.71,16.111H9.696C9.401,16.111 8.862,16.07 8.584,15.794C8.526,15.736 8.48,15.667 8.449,15.592C8.418,15.516 8.403,15.434 8.405,15.352C8.405,15.051 8.564,14.755 8.754,14.379C9.056,13.846 9.274,13.269 9.399,12.669C9.496,12.158 9.558,10.84 9.569,10.426L9.397,10.592C9.466,10.685 9.328,10.731 9.328,10.731C9.416,10.742 9.251,10.889 9.251,10.889C9.394,10.989 9.196,11.023 9.196,11.023C9.305,11.121 9.086,11.182 9.086,11.182C9.472,11.434 9.042,11.34 9.042,11.34C9.35,11.561 8.997,11.483 8.997,11.483C9.229,11.626 8.931,11.67 8.931,11.67C9.372,11.891 8.908,11.829 8.908,11.829C9.35,12.128 8.843,12.007 8.843,12.007C9.526,12.359 8.788,12.194 8.788,12.194C9.493,12.525 8.699,12.382 8.699,12.382C9.537,12.858 8.589,12.54 8.589,12.54C9.499,13.16 8.656,12.783 8.656,12.783C9.291,13.323 8.721,13.025 8.721,13.025C9.185,13.577 8.545,13.125 8.545,13.125C9.18,13.76 8.589,13.411 8.589,13.411C9.086,13.984 8.511,13.569 8.511,13.569C8.975,14.031 8.567,13.855 8.567,13.855C8.726,14.185 8.48,14.076 8.48,14.076C8.699,14.352 8.435,14.33 8.435,14.33C8.667,14.627 8.369,14.55 8.369,14.55C8.48,14.782 8.384,14.806 8.337,14.806C8.337,14.951 8.324,15.087 8.324,15.211C8.318,15.327 8.335,15.443 8.374,15.552C8.413,15.661 8.474,15.761 8.553,15.846V15.852Z" id="path_38"/><path fill="#ffffff" d="M17.883,15.854C17.875,15.845 17.869,15.834 17.864,15.822C17.866,15.816 17.81,15.657 17.566,15.657C17.456,15.657 17.456,15.789 17.545,15.789C17.634,15.789 17.931,15.911 17.577,15.911C17.456,15.911 17.523,15.988 17.588,15.988H17.663C17.795,16.01 17.822,15.927 17.887,15.852L17.883,15.854Z" id="path_39"/><path fill="#ffffff" d="M17.734,16.912C18.116,16.879 18.47,16.701 18.723,16.415C18.629,16.442 18.532,16.459 18.434,16.464C18.544,16.419 18.49,16.305 18.49,16.305C18.396,16.344 18.293,16.36 18.191,16.35C18.241,16.328 18.28,16.288 18.301,16.238C18.219,16.272 18.13,16.285 18.042,16.277C18.068,16.26 18.087,16.235 18.097,16.206C18.107,16.178 18.107,16.146 18.096,16.118C18.028,16.131 17.958,16.135 17.888,16.129C17.902,16.124 17.915,16.116 17.925,16.105C17.935,16.095 17.943,16.082 17.947,16.068C17.951,16.054 17.952,16.039 17.949,16.024C17.947,16.01 17.94,15.996 17.931,15.984C17.772,16.129 17.425,16.107 17.425,16.107C17.482,16.171 17.56,16.214 17.645,16.227C17.6,16.247 17.555,16.269 17.512,16.294C17.564,16.315 17.617,16.333 17.671,16.348C17.568,16.38 17.461,16.395 17.353,16.392C17.515,16.454 17.689,16.477 17.861,16.459C17.709,16.527 17.541,16.553 17.375,16.535C17.43,16.571 17.492,16.595 17.557,16.604C17.621,16.614 17.687,16.609 17.75,16.591C17.675,16.634 17.593,16.664 17.507,16.68C17.604,16.718 17.704,16.747 17.806,16.767C17.506,16.831 17.195,16.817 16.902,16.724L16.936,16.756C17.184,16.871 17.456,16.926 17.729,16.915L17.734,16.912Z" id="path_40"/><path fill="#ffffff" d="M16.042,16.992C16.11,16.974 16.181,16.966 16.252,16.969C16.252,16.969 16.152,16.838 16.042,16.992Z" id="path_41"/><path fill="#ffffff" d="M16.261,17.224C16.175,17.232 16.09,17.245 16.006,17.265C15.969,17.24 15.979,17.219 15.996,17.208C16.021,17.194 16.048,17.185 16.077,17.185C16.152,17.185 16.245,17.237 16.261,17.224Z" id="path_42"/><path fill="#ffffff" d="M16.271,17.478C16.212,17.469 16.079,17.534 15.969,17.537C15.874,17.516 15.874,17.494 15.89,17.486C15.923,17.464 15.962,17.452 16.002,17.451C16.094,17.451 16.237,17.502 16.271,17.478Z" id="path_43"/><path fill="#ffffff" d="M16.282,17.73C16.167,17.764 16.05,17.79 15.932,17.808C15.774,17.792 15.774,17.769 15.781,17.761C15.825,17.733 15.876,17.718 15.927,17.718C16.035,17.718 16.229,17.769 16.282,17.73Z" id="path_44"/><path fill="#ffffff" d="M16.296,17.984C16.169,18.033 16.036,18.065 15.901,18.081C15.691,18.069 15.669,18.043 15.679,18.037C15.733,18.004 15.795,17.986 15.858,17.984C15.983,17.984 16.228,18.034 16.296,17.984Z" id="path_45"/><path fill="#ffffff" d="M16.296,18.238C16.157,18.304 16.008,18.343 15.854,18.353C15.588,18.353 15.553,18.318 15.562,18.313C15.626,18.273 15.699,18.252 15.774,18.251C15.916,18.251 16.21,18.3 16.296,18.238Z" id="path_46"/><path fill="#ffffff" d="M16.31,18.492C16.161,18.576 15.993,18.621 15.821,18.624C15.504,18.624 15.453,18.594 15.46,18.589C15.533,18.543 15.617,18.518 15.704,18.518C15.863,18.518 16.207,18.565 16.31,18.492Z" id="path_47"/><path fill="#ffffff" d="M16.32,18.745C16.163,18.854 15.975,18.909 15.785,18.904C15.404,18.904 15.348,18.877 15.353,18.874C15.434,18.819 15.531,18.791 15.629,18.793C15.805,18.793 16.201,18.839 16.32,18.753V18.745Z" id="path_48"/><path fill="#ffffff" d="M16.33,18.999C16.33,18.999 16.19,19.158 15.748,19.169C15.307,19.18 15.244,19.143 15.245,19.142C15.339,19.08 15.45,19.049 15.563,19.051C15.755,19.051 16.198,19.097 16.337,18.999H16.33Z" id="path_49"/><path fill="#ffffff" d="M15.139,19.418C15.24,19.351 15.359,19.316 15.48,19.318C15.69,19.318 16.185,19.362 16.339,19.253C16.339,19.253 16.207,19.429 15.704,19.44C15.513,19.459 15.32,19.452 15.131,19.418H15.139Z" id="path_50"/><path fill="#ffffff" d="M15.159,19.707C15.261,19.641 15.381,19.607 15.502,19.609C15.79,19.603 16.076,19.581 16.361,19.542C16.361,19.542 16.229,19.718 15.726,19.729C15.534,19.748 15.341,19.74 15.151,19.707H15.159Z" id="path_51"/><path fill="#ffffff" d="M14.961,20.015C15.055,19.955 15.166,19.923 15.278,19.925C15.544,19.919 15.809,19.899 16.072,19.864C16.072,19.864 15.95,20.023 15.489,20.034C15.312,20.051 15.133,20.045 14.958,20.015H14.961Z" id="path_52"/><path fill="#ffffff" d="M14.481,17.303C13.857,17.506 13.204,17.609 12.547,17.609C10.729,17.609 9.642,17.451 9.213,17.119C9.148,17.068 9.153,17.035 9.155,17.024C9.164,16.962 9.253,16.889 9.348,16.833C9.354,16.862 9.363,16.89 9.375,16.917C9.567,17.303 10.645,17.5 12.562,17.5C13.202,17.506 13.841,17.44 14.467,17.303H14.481Z" id="path_53"/><path fill="#000000" d="M13.202,9.624C13.202,9.624 13.678,9.559 13.892,9.33C13.892,9.33 13.333,9.506 13.202,9.624Z" id="path_54"/><path fill="#000000" d="M13.075,9.503C13.075,9.503 13.9,9.286 14.121,9.059C14.121,9.059 13.207,9.386 13.075,9.503Z" id="path_55"/><path fill="#000000" d="M12.991,9.362C12.991,9.362 13.665,9.227 13.886,9C13.886,9 13.124,9.243 12.991,9.362Z" id="path_56"/><path fill="#000000" d="M15.026,9.941C15.026,9.941 15.158,9.816 15.255,9.824C15.351,9.831 15.343,9.782 15.343,9.782C15.343,9.782 15.407,9.866 15.22,9.941C15.155,9.95 15.09,9.95 15.026,9.941Z" id="path_57"/><path fill="#000000" d="M13.657,9.867L13.789,9.802C13.789,9.802 13.811,9.875 13.657,9.867Z" id="path_58"/><path fill="#000000" d="M11.974,14.291C11.901,14.316 11.831,14.349 11.765,14.389C11.731,14.423 11.765,14.5 11.841,14.456C11.917,14.411 12.095,14.235 11.974,14.297V14.291Z" id="path_59"/><path fill="#000000" d="M11.731,14.214C11.676,14.236 11.5,14.269 11.573,14.225C11.646,14.181 11.715,14.093 11.731,14.149C11.747,14.204 11.72,14.214 11.72,14.214H11.731Z" id="path_60"/><path fill="#000000" d="M10.263,11.106C10.263,11.106 10.152,11.128 10.152,11.172C10.152,11.217 10.203,11.234 10.263,11.106Z" id="path_61"/><path fill="#000000" d="M10.298,11.292C10.298,11.292 10.199,11.325 10.233,11.37C10.266,11.414 10.286,11.381 10.298,11.292Z" id="path_62"/><path fill="#ffffff" d="M10.898,21.314C11.074,21.242 11.26,21.194 11.449,21.171C11.714,21.149 12.387,21.051 12.53,20.917C12.673,20.784 12.606,20.984 12.486,21.039C12.15,21.159 11.802,21.24 11.449,21.281C11.208,21.281 10.898,21.314 10.898,21.314Z" id="path_63"/><path fill="#ffffff" d="M10.982,21.082C11.148,20.929 11.363,20.842 11.588,20.838C11.854,20.822 12.525,20.741 12.668,20.609C12.811,20.477 12.746,20.65 12.624,20.706C12.289,20.825 11.941,20.906 11.588,20.947C11.381,20.964 11.177,21.009 10.982,21.082Z" id="path_64"/><path fill="#ffffff" d="M11.25,20.781C11.411,20.637 11.618,20.554 11.833,20.546C12.086,20.528 12.716,20.458 12.856,20.33C12.995,20.201 12.899,20.381 12.778,20.431C12.465,20.541 12.142,20.616 11.813,20.655C11.62,20.672 11.432,20.714 11.25,20.781Z" id="path_65"/><path fill="#ffffff" d="M11.643,20.428C11.799,20.293 11.995,20.213 12.201,20.201C12.443,20.182 13.032,20.123 13.165,20.001C13.299,19.879 13.176,20.058 13.056,20.106C12.765,20.205 12.465,20.274 12.16,20.312C11.983,20.327 11.809,20.366 11.643,20.428Z" id="path_66"/><path fill="#ffffff" d="M12.864,19.515C12.677,19.532 12.5,19.605 12.354,19.723C12.492,19.67 12.636,19.637 12.783,19.624C13.038,19.591 13.29,19.534 13.535,19.454C13.658,19.415 13.804,19.257 13.712,19.34C13.589,19.453 13.076,19.499 12.864,19.515Z" id="path_67"/><path fill="#ffffff" d="M12.581,19.425C12.704,19.378 12.833,19.347 12.965,19.335C13.197,19.302 13.425,19.248 13.648,19.176C13.705,19.155 13.758,19.125 13.807,19.089C13.565,19.163 13.315,19.206 13.062,19.218C12.885,19.239 12.717,19.308 12.576,19.417L12.581,19.425Z" id="path_68"/><path fill="#ffffff" d="M12.891,19.124C13,19.082 13.115,19.055 13.232,19.043C13.438,19.013 13.643,18.968 13.843,18.91C13.899,18.89 13.952,18.864 14.002,18.832C13.788,18.886 13.569,18.92 13.349,18.934C13.182,18.958 13.022,19.024 12.886,19.124H12.891Z" id="path_69"/><path fill="#ffffff" d="M13.083,18.841C13.178,18.806 13.277,18.782 13.378,18.77C13.56,18.744 13.74,18.706 13.918,18.656C13.979,18.638 14.038,18.613 14.094,18.581C13.905,18.622 13.713,18.649 13.521,18.662C13.363,18.689 13.214,18.75 13.083,18.841Z" id="path_70"/><path fill="#ffffff" d="M13.448,18.486C13.528,18.454 13.613,18.433 13.699,18.423C13.824,18.41 14.08,18.347 14.175,18.326C14.243,18.309 14.309,18.282 14.37,18.248C14.222,18.289 13.995,18.292 13.867,18.315C13.719,18.345 13.579,18.403 13.454,18.486H13.448Z" id="path_71"/><path fill="#ffffff" d="M13.68,18.196C13.746,18.17 13.815,18.152 13.886,18.142C13.997,18.128 14.204,18.08 14.285,18.065C14.363,18.046 14.44,18.018 14.512,17.98C14.378,18.014 14.183,18.012 14.069,18.034C13.931,18.066 13.8,18.12 13.68,18.193V18.196Z" id="path_72"/><path fill="#ffffff" d="M13.886,17.973C13.937,17.953 13.991,17.938 14.045,17.929C14.142,17.911 14.292,17.881 14.373,17.868C14.466,17.849 14.555,17.818 14.64,17.776C14.519,17.803 14.353,17.799 14.248,17.821C14.12,17.858 13.997,17.911 13.883,17.98L13.886,17.973Z" id="path_73"/><path fill="#ffffff" d="M14.624,17.584C14.519,17.608 14.375,17.597 14.278,17.621C14.16,17.658 14.046,17.706 13.936,17.763C14.058,17.723 14.184,17.697 14.311,17.687C14.421,17.666 14.528,17.631 14.629,17.584H14.624Z" id="path_74"/><path fill="#ffffff" d="M9.787,8.928C9.533,9.257 9.255,9.565 8.955,9.852L8.902,9.906C9.018,9.947 9.22,10.034 9.236,10.112C9.252,10.233 9.222,10.355 9.152,10.453C9.074,10.526 8.936,10.625 8.853,10.612C8.77,10.599 8.737,10.568 8.737,10.496C8.737,10.425 8.809,10.398 8.871,10.392C8.897,10.389 8.923,10.377 8.942,10.358C8.961,10.339 8.973,10.314 8.975,10.287C8.975,10.244 8.92,10.199 8.871,10.144C8.833,10.108 8.805,10.063 8.788,10.014L8.65,10.153C8.41,10.403 8.466,10.63 8.586,10.747C8.61,10.775 8.64,10.798 8.672,10.814C8.705,10.831 8.741,10.84 8.778,10.843C8.815,10.845 8.851,10.84 8.886,10.828C8.921,10.816 8.953,10.797 8.98,10.773C9.152,10.603 9.474,10.296 9.726,10.066C9.802,9.929 9.918,9.818 10.058,9.749C9.961,9.464 9.869,9.191 9.787,8.928Z" id="path_75"/><path fill="#ffffff" d="M13.597,3.228C13.403,3.142 13.198,3.083 12.989,3.052V3.109C13.001,3.107 13.013,3.107 13.025,3.109C13.218,3.144 13.404,3.21 13.576,3.304L13.597,3.228Z" id="path_76"/><path fill="#ffffff" d="M13.035,3.419L13.186,3.461C13.276,3.049 13.099,3.315 13.035,3.419Z" id="path_77"/><path fill="#ffffff" d="M13.009,3.122H12.973L12.949,3.4L13.025,3.421C13.079,3.24 13.054,3.144 13.009,3.125V3.122Z" id="path_78"/><path fill="#ffffff" d="M13.378,3.517L13.505,3.552L13.532,3.463C13.564,3.128 13.405,3.463 13.373,3.517H13.378Z" id="path_79"/><path fill="#ffffff" d="M13.19,3.465L13.367,3.514C13.452,3.009 13.208,3.43 13.19,3.465Z" id="path_80"/><path fill="#ffffff" d="M12.668,3.069C11.953,3.186 9.79,3.704 8.261,5.709C7.559,6.603 7.1,7.663 6.929,8.787C6.815,9.511 6.87,10.252 7.087,10.951C7.094,10.959 7.098,10.967 7.102,10.977C7.116,10.987 7.132,10.993 7.149,10.995C7.167,10.997 7.184,10.994 7.2,10.988C7.244,10.975 7.256,10.953 7.256,10.932C7.121,10.492 7.059,10.033 7.073,9.573C7.08,9.182 7.139,8.793 7.246,8.417C7.383,7.699 7.652,7.012 8.04,6.391C8.48,5.693 9.058,5.092 9.737,4.623C10.623,4.024 11.621,3.611 12.671,3.41C12.83,3.377 12.774,3.061 12.671,3.069H12.668Z" id="path_81"/><path fill="#ffffff" d="M12.978,3.538C12.978,3.538 12.925,3.524 12.919,3.568C12.913,3.613 12.816,4.935 12.816,4.935L12.975,3.538H12.978Z" id="path_82"/><path fill="#ffffff" d="M16.387,10.536C16.314,10.399 16.244,10.271 16.202,10.176C16.179,10.12 16.161,10.077 16.147,10.039C16.069,9.88 15.944,9.679 15.955,9.55C15.966,9.422 15.996,9.374 15.926,9.344C15.856,9.314 15.809,9.263 15.79,9.282C15.771,9.301 15.68,9.329 15.663,9.299C15.651,9.284 15.636,9.271 15.619,9.264C15.601,9.256 15.582,9.254 15.563,9.256C15.571,9.264 15.576,9.274 15.58,9.284C15.583,9.295 15.583,9.306 15.581,9.317C15.579,9.328 15.574,9.338 15.567,9.347C15.56,9.355 15.551,9.362 15.54,9.366C15.46,9.407 15.434,9.393 15.431,9.418C15.428,9.444 15.317,9.436 15.331,9.469C15.345,9.502 15.382,9.561 15.353,9.564C15.256,9.597 15.162,9.639 15.074,9.69C14.978,9.745 15.136,9.69 15.221,9.66C15.307,9.629 15.247,9.756 15.188,9.779C15.129,9.801 14.942,9.899 14.831,9.937C14.831,9.937 14.842,9.809 14.809,9.815C14.775,9.822 14.809,9.75 14.831,9.728C14.853,9.706 14.853,9.658 14.764,9.672C14.675,9.687 14.696,9.717 14.566,9.717C14.394,9.713 14.228,9.658 14.089,9.558C14.05,9.56 14.01,9.56 13.97,9.558C13.875,9.558 13.83,9.69 13.942,9.69C13.942,9.69 14,9.734 13.927,9.771C13.854,9.807 13.853,9.712 13.853,9.712C13.736,9.717 13.621,9.745 13.515,9.793C13.569,9.746 13.619,9.692 13.662,9.634C13.567,9.64 13.474,9.665 13.389,9.707C13.707,9.474 14.07,9.311 14.456,9.231C14.305,9.192 14.147,9.2 14,9.253C14.194,9.128 14.425,9.072 14.655,9.094C14.655,9.094 14.442,8.936 14.426,8.837H14.14C14.14,8.837 14.169,8.756 13.927,8.809C13.686,8.861 13.551,8.874 13.551,8.874C13.551,8.874 14.007,8.845 13.757,8.932C13.224,9.108 12.704,9.32 12.2,9.568C12.328,9.524 12.461,9.497 12.595,9.485C12.595,9.485 12.298,9.69 12.168,9.782L12.403,9.768C12.403,9.768 11.867,10.053 12.264,10.003C12.264,10.003 11.743,10.32 12.176,10.231C12.176,10.231 11.64,10.561 12.235,10.39C12.235,10.39 11.441,10.823 12.344,10.566C12.344,10.566 11.441,10.992 12.367,10.779C12.367,10.779 11.544,11.241 12.302,11.028C12.074,11.147 11.868,11.303 11.692,11.49C11.692,11.49 12.486,11.093 12.846,11.079C12.416,11.233 12.021,11.473 11.686,11.784C12.052,11.554 12.454,11.387 12.876,11.292C12.876,11.292 11.673,11.846 11.306,12.438H11.328C11.328,12.438 12.195,11.528 13.157,11.446C13.157,11.446 11.857,11.836 11.349,12.667L11.401,12.695C11.828,12.173 12.423,11.816 13.084,11.687C13.084,11.687 11.973,12.201 11.541,12.768L11.578,12.833C11.963,12.384 12.484,12.072 13.062,11.944C13.062,11.944 11.901,12.556 11.584,13.04L11.665,13.084C11.665,13.084 12.313,12.313 12.945,12.216C12.945,12.216 12.106,12.692 11.813,13.113L11.863,13.151C12.112,12.88 12.423,12.673 12.768,12.548C12.461,12.738 12.188,12.979 11.96,13.26L12.025,13.297C12.255,13.119 12.498,12.96 12.752,12.821C12.547,12.979 12.361,13.161 12.195,13.361L12.283,13.427C12.417,13.334 12.563,13.259 12.716,13.203C12.951,13.116 12.422,13.494 12.349,13.592L12.378,13.615C12.514,13.517 12.656,13.429 12.803,13.351C13.016,13.24 12.911,13.376 12.543,13.707L12.616,13.743C12.616,13.743 13.289,13.383 12.818,13.794C12.818,13.794 12.937,13.916 13.178,13.681C13.419,13.446 13.178,13.864 12.951,13.999C12.724,14.134 13.135,14.035 13.413,13.786C13.691,13.537 13.532,13.865 13.473,13.91C13.415,13.954 13.28,14.069 13.28,14.069C13.482,14.015 13.668,13.914 13.824,13.775C14.073,13.548 13.897,13.834 13.824,13.892C13.736,13.98 13.64,14.059 13.537,14.129C13.724,14.099 13.896,14.005 14.023,13.864C14.25,13.621 14.14,13.981 13.875,14.158C13.875,14.158 13.942,14.246 14.404,13.892C14.866,13.538 14.162,14.21 14.162,14.21C14.162,14.21 14.196,14.308 14.523,14.019C14.786,13.784 14.464,14.232 14.464,14.232C14.464,14.232 14.537,14.305 14.781,14.137C15.026,13.969 14.87,14.202 14.826,14.24C14.781,14.278 15.047,14.277 15.144,14.151C15.24,14.026 15.255,14.202 15.202,14.254C15.15,14.307 15.291,14.305 15.437,14.181C15.583,14.057 15.474,14.283 15.453,14.305C15.432,14.327 15.518,14.358 15.629,14.269C15.741,14.18 15.717,14.335 15.666,14.364C15.615,14.392 15.718,14.442 15.775,14.386C15.906,14.262 15.788,14.513 15.852,14.545C15.94,14.513 16.016,14.455 16.07,14.379C16.125,14.303 16.154,14.212 16.155,14.118C16.152,13.893 16.098,13.672 15.996,13.472C15.924,13.454 15.848,13.458 15.779,13.483C15.499,13.586 15.734,13.41 15.675,13.424C15.617,13.438 15.448,13.462 15.536,13.395C15.594,13.348 15.647,13.295 15.694,13.237H15.706C15.719,13.232 15.734,13.232 15.748,13.237C15.941,13.262 16.066,13.237 16.125,13.154C16.149,13.104 16.163,13.049 16.166,12.992C16.169,12.936 16.161,12.88 16.142,12.827C16.006,12.71 15.536,12.614 15.429,12.614C15.323,12.614 15.085,12.71 14.966,12.71C14.847,12.71 14.85,12.644 14.908,12.622C15.024,12.589 15.137,12.547 15.247,12.497C15.399,12.435 15.559,12.398 15.723,12.387C15.818,12.387 15.928,12.446 15.995,12.446C16.061,12.446 16.144,12.446 16.182,12.371C16.193,12.319 16.193,12.265 16.182,12.213L16.172,12.17C16.125,12.207 16.071,12.236 16.014,12.254C15.882,12.29 15.89,12.173 15.89,12.173C15.779,12.216 15.823,12.055 15.823,12.055C15.683,12.106 15.771,11.922 15.771,11.922C15.566,11.974 15.72,11.776 15.72,11.776C15.412,11.916 15.561,11.695 15.561,11.695C15.304,11.754 15.347,11.643 15.347,11.643C15.201,11.687 15.237,11.563 15.237,11.563C15.193,11.578 15.055,11.578 15.105,11.46C15.119,11.427 15.142,11.399 15.173,11.381C15.203,11.362 15.238,11.354 15.274,11.357C15.274,11.46 15.363,11.422 15.458,11.416C15.553,11.409 15.628,11.357 15.606,11.387C15.512,11.511 15.737,11.438 15.796,11.387C15.855,11.336 15.964,11.343 15.942,11.371C15.829,11.522 15.987,11.46 16.141,11.387C16.295,11.314 16.223,11.452 16.223,11.452C16.223,11.452 16.126,11.533 16.282,11.466C16.438,11.4 16.455,11.493 16.455,11.528C16.556,11.528 16.703,11.495 16.731,11.385C16.771,11.244 16.541,10.82 16.39,10.539L16.387,10.536Z" id="path_83"/><path fill="#ffffff" d="M11.692,17.216C11.642,17.254 11.606,17.288 11.709,17.291C11.806,17.289 11.898,17.253 11.969,17.188C12.036,17.132 12.092,17.177 12.039,17.202C11.987,17.227 11.974,17.302 12.025,17.294C12.106,17.279 12.182,17.243 12.246,17.191C12.36,17.115 12.357,17.191 12.304,17.235C12.252,17.28 12.238,17.305 12.282,17.294C12.425,17.223 12.564,17.143 12.698,17.056C12.808,16.986 12.724,17.008 12.668,17.015C12.613,17.021 12.632,16.986 12.668,16.948C12.713,16.911 12.755,16.871 12.793,16.827C12.849,16.76 12.635,16.827 12.544,16.853C12.454,16.878 12.436,16.853 12.492,16.802C12.547,16.751 12.863,16.584 12.951,16.503C13.038,16.422 12.981,16.386 12.894,16.449C12.806,16.513 12.503,16.688 12.403,16.74C12.303,16.792 12.235,16.74 12.316,16.699C12.45,16.625 12.579,16.543 12.701,16.451C12.793,16.37 12.771,16.345 12.69,16.376C12.571,16.442 12.446,16.496 12.316,16.535C12.205,16.549 12.231,16.51 12.327,16.462C12.422,16.414 12.827,16.175 13.028,16.057C13.23,15.94 13.109,15.944 13.059,15.973C13.008,16.002 12.503,16.26 12.397,16.291C12.29,16.321 12.316,16.271 12.377,16.224C12.439,16.176 13.117,15.794 13.171,15.748C13.225,15.702 13.2,15.689 13.141,15.711C13.082,15.733 12.557,16.005 12.462,16.029C12.366,16.052 12.384,16 12.451,15.956C12.517,15.911 13.065,15.565 13.135,15.519C13.205,15.473 13.178,15.405 13.098,15.455C13.019,15.506 12.319,15.86 12.238,15.9C12.157,15.94 12.12,15.908 12.176,15.867C12.231,15.825 13.032,15.357 13.109,15.293C13.187,15.23 13.12,15.213 13.04,15.243C12.959,15.273 12.382,15.578 12.327,15.619C12.271,15.66 12.254,15.619 12.298,15.559C12.343,15.498 12.949,15.162 13.006,15.105C13.063,15.047 13.062,15.012 12.955,15.055C12.849,15.098 12.43,15.317 12.363,15.34C12.297,15.362 12.243,15.359 12.312,15.314C12.382,15.27 12.871,14.979 12.925,14.92C12.979,14.862 12.984,14.814 12.9,14.862C12.687,14.97 12.467,15.065 12.243,15.146C12.162,15.16 12.139,15.146 12.216,15.109C12.292,15.073 12.692,14.844 12.727,14.803C12.762,14.762 12.771,14.712 12.709,14.755C12.647,14.798 12.29,14.943 12.216,14.976C12.141,15.009 12.106,14.925 12.19,14.9C12.319,14.849 12.443,14.784 12.559,14.708C12.657,14.643 12.514,14.549 12.455,14.593C12.397,14.638 12.201,14.712 12.1,14.766C11.998,14.82 11.941,14.778 12,14.744C12.058,14.711 12.298,14.585 12.338,14.565C12.377,14.544 12.279,14.462 12.254,14.45C12.228,14.439 12.084,14.531 12.028,14.554C11.973,14.576 11.915,14.554 11.941,14.52C11.986,14.483 12.035,14.45 12.089,14.425C12.125,14.406 12.131,14.363 12.147,14.319C12.163,14.274 12.257,14.304 12.306,14.271C12.347,14.248 12.383,14.218 12.412,14.182C12.457,14.131 12.339,14.135 12.311,14.16C12.282,14.185 12.2,14.227 12.174,14.249C12.149,14.271 12.071,14.235 12.016,14.215C11.994,14.208 11.974,14.196 11.958,14.18C11.941,14.164 11.929,14.145 11.92,14.123C11.919,14.098 11.922,14.072 11.931,14.048C11.94,14.024 11.953,14.002 11.971,13.984C12.01,13.956 12.042,13.921 12.066,13.88C12.082,13.849 12.038,13.833 12,13.844C11.953,13.871 11.913,13.909 11.884,13.955C11.861,13.987 11.755,13.911 11.725,13.874C11.695,13.838 11.75,13.833 11.793,13.826C11.853,13.803 11.907,13.767 11.952,13.72C11.988,13.682 12.011,13.676 11.988,13.634C11.984,13.626 11.977,13.618 11.969,13.613C11.96,13.608 11.951,13.604 11.941,13.602C11.931,13.601 11.922,13.602 11.912,13.605C11.903,13.608 11.894,13.613 11.887,13.62C11.835,13.662 11.787,13.709 11.744,13.76C11.728,13.782 11.692,13.827 11.655,13.822C11.619,13.817 11.641,13.746 11.63,13.715C11.625,13.7 11.614,13.686 11.601,13.677C11.588,13.667 11.572,13.662 11.555,13.661C11.519,13.661 11.501,13.661 11.498,13.623C11.495,13.585 11.487,13.544 11.523,13.544C11.56,13.544 11.566,13.514 11.574,13.466C11.582,13.418 11.442,13.418 11.401,13.418C11.36,13.418 11.384,13.388 11.393,13.349C11.403,13.309 11.35,13.33 11.342,13.301C11.334,13.221 11.334,13.141 11.342,13.061C11.354,13.033 11.379,13.044 11.404,13.033C11.428,13.019 11.446,12.996 11.455,12.969C11.463,12.952 11.419,12.918 11.396,12.915C11.387,12.913 11.377,12.914 11.368,12.917C11.359,12.92 11.351,12.925 11.345,12.933C11.332,12.953 11.321,12.976 11.312,12.999C11.265,13.028 11.217,13.01 11.217,12.98C11.215,12.967 11.217,12.954 11.223,12.942C11.229,12.93 11.238,12.921 11.25,12.915C11.284,12.893 11.25,12.871 11.234,12.841C11.219,12.81 11.203,12.801 11.15,12.801C11.098,12.801 11.095,12.739 11.044,12.698C10.993,12.656 11.08,12.658 11.166,12.658C11.252,12.658 11.191,12.588 11.144,12.525C11.097,12.466 11.044,12.413 10.985,12.366C10.851,12.351 10.722,12.307 10.606,12.237C10.352,12.277 9.785,12.714 9.667,12.807V12.895C9.818,12.815 10.252,12.577 10.336,12.552C10.42,12.526 10.495,12.571 10.375,12.599C10.131,12.736 9.895,12.887 9.669,13.052V13.163C9.771,13.085 10.145,12.836 10.196,12.806C10.247,12.776 10.431,12.845 10.277,12.868C10.123,12.89 9.777,13.207 9.674,13.276C9.674,13.317 9.674,13.357 9.674,13.396C9.818,13.294 9.969,13.201 10.125,13.117C10.239,13.08 10.225,13.131 10.158,13.168C10.091,13.204 9.793,13.433 9.682,13.53C9.682,13.558 9.682,13.587 9.682,13.615C9.764,13.561 9.939,13.447 9.99,13.417C10.04,13.387 10.093,13.417 10.037,13.447C9.982,13.477 9.761,13.723 9.691,13.774C9.691,13.812 9.691,13.849 9.691,13.882C9.757,13.835 9.818,13.782 9.874,13.723C9.955,13.642 10.021,13.723 9.96,13.757C9.869,13.846 9.784,13.941 9.704,14.039V14.077C9.704,14.095 9.704,14.112 9.704,14.13C9.772,14.087 9.863,14.03 9.904,13.998C9.945,13.966 10.029,13.95 9.985,13.998C9.94,14.046 9.798,14.196 9.725,14.285L9.739,14.377C9.85,14.3 10.006,14.184 10.056,14.144C10.107,14.104 10.166,14.144 10.11,14.182C10.055,14.22 9.882,14.395 9.764,14.511C9.764,14.554 9.777,14.598 9.785,14.643C9.82,14.617 9.858,14.587 9.894,14.557C9.931,14.527 9.982,14.557 9.931,14.611C9.88,14.665 9.842,14.709 9.801,14.759C9.809,14.803 9.813,14.847 9.82,14.892C9.896,14.833 10.009,14.708 10.074,14.649C10.139,14.59 10.188,14.604 10.136,14.649C10.083,14.693 9.925,14.873 9.831,14.967C9.831,14.998 9.831,15.032 9.844,15.065C9.921,15.014 10.101,14.895 10.161,14.851C10.222,14.806 10.279,14.832 10.206,14.887C10.086,15 9.973,15.119 9.866,15.244C9.866,15.282 9.866,15.321 9.874,15.36C9.972,15.284 10.236,15.095 10.295,15.052C10.353,15.009 10.379,15.03 10.334,15.074C10.29,15.119 10.01,15.392 9.89,15.498V15.614C10.046,15.503 10.195,15.383 10.337,15.255C10.396,15.193 10.426,15.255 10.382,15.305C10.337,15.354 10.004,15.632 9.89,15.736C9.89,15.773 9.89,15.811 9.89,15.848C10.006,15.781 10.252,15.581 10.347,15.514C10.442,15.448 10.453,15.487 10.39,15.551C10.326,15.614 10.026,15.859 9.882,15.976C9.882,16.024 9.882,16.073 9.867,16.121C10.045,16.023 10.213,15.911 10.372,15.786C10.46,15.695 10.493,15.76 10.415,15.824C10.337,15.887 9.993,16.154 9.834,16.281C9.825,16.329 9.813,16.376 9.801,16.424C9.92,16.333 10.358,16.029 10.436,15.948C10.514,15.867 10.561,15.917 10.488,15.987C10.415,16.057 9.923,16.507 9.694,16.686C9.671,16.735 9.645,16.782 9.615,16.827L9.599,16.851C9.715,16.773 10.137,16.43 10.247,16.359C10.356,16.287 10.368,16.329 10.309,16.376C10.25,16.424 9.723,16.911 9.648,16.986C9.671,17 9.694,17.013 9.718,17.024C9.828,16.93 10.391,16.472 10.477,16.41C10.563,16.348 10.572,16.421 10.518,16.457C10.464,16.494 9.94,16.948 9.81,17.064L9.904,17.097C9.971,17.043 10.406,16.707 10.466,16.656C10.526,16.605 10.558,16.638 10.522,16.683C10.485,16.727 10.063,17.057 9.993,17.111L9.982,17.121C10.017,17.132 10.053,17.142 10.093,17.151C10.191,17.086 10.447,16.911 10.522,16.865C10.596,16.819 10.617,16.821 10.555,16.881C10.493,16.941 10.282,17.119 10.212,17.178C10.272,17.191 10.337,17.204 10.409,17.215L10.482,17.17C10.53,17.143 10.501,17.189 10.472,17.226C10.609,17.246 10.763,17.267 10.939,17.283C10.961,17.267 10.982,17.242 11.044,17.197C11.106,17.153 11.092,17.219 11.044,17.292H11.123C11.151,17.273 11.176,17.251 11.2,17.227C11.255,17.169 11.311,17.183 11.271,17.238C11.256,17.258 11.245,17.279 11.236,17.302H11.36C11.457,17.256 11.55,17.205 11.641,17.162C11.731,17.119 11.715,17.162 11.668,17.205L11.692,17.216Z" id="path_84"/><path fill="#ffffff" d="M13.93,2.878L13.293,5.076C14.281,5.314 14.833,5.722 15.806,6.51C16.584,7.141 16.879,8.004 16.93,8.357C17.047,9.068 16.367,8.979 16.367,8.979C16.367,8.979 16.362,9.082 16.418,9.197C16.474,9.313 16.499,9.43 16.504,9.475C16.551,9.65 16.441,9.607 16.418,9.607C16.344,9.607 16.102,9.545 16.441,10.275C16.781,11.006 16.961,11.182 16.887,11.447C16.827,11.66 16.549,11.705 16.418,11.701C16.379,11.775 16.31,11.969 16.348,12.15C16.385,12.332 16.332,12.502 16.301,12.564C16.28,12.572 16.245,12.608 16.273,12.689C16.309,12.791 16.348,12.873 16.348,13.072C16.348,13.232 16.212,13.347 16.145,13.385C16.323,13.716 16.338,14.046 16.324,14.17C16.324,14.838 15.207,14.643 15.277,15.42C15.348,16.197 15.965,16.275 15.965,16.275H16.41L17.145,15.725C17.197,15.623 17.366,15.42 17.629,15.42C17.891,15.42 18.021,15.583 18.053,15.665H19.224C19.246,15.614 19.32,15.413 19.442,15.017C19.595,14.523 20.017,12.537 19.755,10.683C19.493,8.828 19.072,7.637 18.26,6.348C17.447,5.06 16.736,4.482 15.917,3.865C15.262,3.371 14.319,3.001 13.93,2.878Z" id="path_85"/></svg>