<svg id="vector" xmlns="http://www.w3.org/2000/svg" width="24" height="24" viewBox="0 0 24 24"><path fill="#FFCB05" d="M10.22,6.423C11.018,6.16 11.863,6.068 12.7,6.152C13.537,6.236 14.346,6.495 15.074,6.912C15.802,7.328 16.433,7.892 16.924,8.568C17.416,9.243 17.758,10.014 17.927,10.83L22,10.007C21.715,8.619 21.135,7.308 20.3,6.159C19.464,5.01 18.392,4.05 17.154,3.342C15.916,2.634 14.541,2.194 13.118,2.051C11.696,1.908 10.259,2.066 8.903,2.514L10.22,6.423Z" id="path_0"/><path fill="#00A4E0" d="M5.414,19.495L8.168,16.412C7.538,15.86 7.033,15.182 6.688,14.422C6.342,13.663 6.163,12.839 6.163,12.006C6.163,11.173 6.342,10.35 6.688,9.59C7.033,8.831 7.538,8.153 8.168,7.601L5.411,4.516C4.339,5.454 3.48,6.608 2.892,7.899C2.304,9.191 2,10.592 2,12.009C2,13.426 2.304,14.827 2.892,16.118C3.48,17.41 4.339,18.563 5.411,19.502" id="path_1"/><path fill="#EF4123" d="M17.926,13.185C17.756,14 17.414,14.77 16.922,15.445C16.43,16.12 15.799,16.684 15.071,17.099C14.343,17.515 13.534,17.773 12.697,17.857C11.861,17.941 11.016,17.848 10.219,17.585L8.9,21.487C10.255,21.934 11.691,22.092 13.112,21.949C14.533,21.807 15.908,21.368 17.146,20.661C18.383,19.955 19.456,18.997 20.292,17.85C21.128,16.703 21.71,15.394 21.999,14.009L17.926,13.185Z" id="path_2"/></svg>