<svg id="vector" xmlns="http://www.w3.org/2000/svg" width="30" height="18" viewBox="0 0 30 18"><path fill="#FF5F00" d="M18.892,1.924H10.229V16.074H18.892V1.924Z" id="path_0"/><path fill="#EB001B" d="M11.122,9.001C11.12,7.638 11.429,6.294 12.025,5.068C12.62,3.843 13.486,2.769 14.558,1.927C13.231,0.884 11.637,0.235 9.958,0.055C8.279,-0.125 6.584,0.171 5.065,0.909C3.547,1.647 2.266,2.797 1.371,4.228C0.475,5.66 0,7.314 0,9.002C0,10.691 0.475,12.345 1.371,13.776C2.266,15.207 3.547,16.357 5.065,17.095C6.584,17.833 8.279,18.129 9.958,17.949C11.637,17.769 13.231,17.12 14.558,16.077C13.486,15.236 12.62,14.161 12.024,12.935C11.429,11.709 11.12,10.364 11.122,9.001Z" id="path_1"/><path fill="#F79E1B" d="M28.258,14.577V14.287H28.383V14.227H28.085V14.287H28.203V14.577H28.258ZM28.835,14.577V14.227H28.745L28.64,14.477L28.535,14.227H28.445V14.577H28.51V14.312L28.608,14.539H28.675L28.773,14.312V14.577H28.835Z" id="path_2"/><path fill="#F79E1B" d="M29.118,9.001C29.118,10.689 28.643,12.343 27.747,13.775C26.851,15.206 25.57,16.356 24.052,17.094C22.533,17.832 20.837,18.127 19.159,17.947C17.48,17.767 15.885,17.118 14.558,16.074C15.63,15.232 16.496,14.158 17.091,12.932C17.687,11.707 17.996,10.362 17.996,8.999C17.996,7.637 17.687,6.292 17.091,5.066C16.496,3.841 15.63,2.766 14.558,1.924C15.885,0.881 17.48,0.232 19.159,0.051C20.837,-0.129 22.533,0.167 24.052,0.905C25.57,1.642 26.851,2.793 27.747,4.224C28.643,5.655 29.118,7.31 29.118,8.998V9.001Z" id="path_3"/></svg>