<svg id="vector" xmlns="http://www.w3.org/2000/svg" width="24" height="24" viewBox="0 0 24 24"><path fill="#BD1D1D" d="M4.469,22H13.269C13.944,21.972 14.592,21.721 15.11,21.287C15.628,20.853 15.988,20.259 16.134,19.599L19.531,2H10.733C10.057,2.028 9.41,2.279 8.891,2.713C8.373,3.147 8.012,3.741 7.866,4.401L4.469,22Z" fill-rule="evenodd" id="path_0"/><path fill="#ffffff" d="M7.934,14.958C8.205,13.983 8.462,12.892 8.704,11.684C8.945,10.476 9.161,9.193 9.35,7.834C9.517,7.856 9.623,7.867 9.708,7.875C9.767,7.878 9.826,7.878 9.885,7.875C9.948,7.875 10.024,7.875 10.111,7.875L10.455,7.834C10.264,8.469 10.104,9.114 9.978,9.766L9.956,9.877L9.751,10.882L10.373,10.901C10.968,10.901 11.364,10.92 11.552,10.92C11.943,10.92 12.584,10.909 13.476,10.887H13.656L13.899,9.722C13.983,9.285 14.046,8.928 14.084,8.65C14.122,8.371 14.152,8.104 14.174,7.831C14.311,7.853 14.42,7.864 14.504,7.872C14.589,7.88 14.665,7.872 14.733,7.872C14.795,7.875 14.857,7.875 14.919,7.872C14.998,7.872 15.121,7.853 15.287,7.831C14.924,9.204 14.619,10.504 14.373,11.73C14.128,12.956 13.958,14.032 13.863,14.958L13.503,14.906H13.342C13.276,14.906 13.2,14.906 13.11,14.906C13.02,14.906 12.903,14.925 12.753,14.947C12.881,14.469 12.99,14.044 13.08,13.675C13.17,13.307 13.238,13.012 13.285,12.789L13.557,11.425H12.466H11.648H10.657H9.653L9.413,12.581C9.345,12.925 9.282,13.296 9.219,13.686C9.156,14.077 9.096,14.505 9.034,14.958C8.903,14.939 8.794,14.928 8.712,14.92C8.63,14.911 8.553,14.92 8.493,14.92C8.433,14.92 8.362,14.92 8.278,14.92C8.193,14.92 8.081,14.939 7.934,14.961V14.958Z" id="path_1"/></svg>